# xmcd
#
# Track frame offsets:
#	150
#	18959
#	32140
#	47805
#	68020
#	80116
#	96862
#	115394
#	125108
#
# Disc length: 1853 seconds
#
# Revision: 1
# Processed by: cddbd v1.5.2PL0 Copyright (c) Steve Scherf et al.
# Submitted via: audiograbber 1.82.01
#
DISCID=7a073b09
DTITLE=Bittersüß - Ich weiß nicht, zu wem ich gehöre
DYEAR=2006
DGENRE=Chanson
TTITLE0=Wo ist der eine?
TTITLE1=Ich steh´mit Ruth gut
TTITLE2=Benjamin, ich hab nichts anzuzieh´n
TTITLE3=Ich weiß nicht, zu wem ich gehöre
TTITLE4=Wie kommt der Lippenstift in Lehmanns Unterbett?
TTITLE5=Heinrich, wo greifst du denn hin?
TTITLE6=Johnny, wenn du Geburtstag hast
TTITLE7=Kinder, heut´abend, da such ich mir was aus
TTITLE8=Ein Wunder ist heut´für mich geschehn
EXTD=
EXTT0=
EXTT1=
EXTT2=
EXTT3=
EXTT4=
EXTT5=
EXTT6=
EXTT7=
EXTT8=
PLAYORDER=
